<?xml version="1.0" encoding="utf-8"?>
<!-- Generator: Adobe Illustrator 24.0.1, SVG Export Plug-In . SVG Version: 6.00 Build 0)  -->
<svg version="1.1" xmlns="http://www.w3.org/2000/svg" xmlns:xlink="http://www.w3.org/1999/xlink" x="0px" y="0px"
	 viewBox="0 0 1080 1080" style="enable-background:new 0 0 1080 1080;" xml:space="preserve">
<style type="text/css">
	.st0{opacity:0.4;}
	.st1{clip-path:url(#SVGID_2_);fill:#3373E0;}
	.st2{clip-path:url(#SVGID_2_);}
	.st3{fill:#E3E3E3;}
	.st4{opacity:0.4;clip-path:url(#SVGID_4_);fill:#8DBAF1;}
	.st5{fill:#3373E0;}
	.st6{fill:none;}
	.st7{fill:none;stroke:#E3E3E3;stroke-width:4;stroke-linecap:round;stroke-miterlimit:10;}
	.st8{fill:#035C98;}
	.st9{fill:#FFFFFF;}
	.st10{fill:none;stroke:#3D88F9;stroke-width:3;stroke-linecap:round;stroke-miterlimit:10;}
	.st11{fill:none;stroke:#7E879F;stroke-miterlimit:10;}
	.st12{fill:none;stroke:#7E879F;stroke-miterlimit:10;stroke-dasharray:8.9558,8.9558;}
	.st13{fill:none;stroke:#7E879F;stroke-miterlimit:10;stroke-dasharray:8.9046,8.9046;}
	.st14{fill:#044A75;}
	.st15{fill:#3D88F9;}
	.st16{fill:none;stroke:#023373;stroke-width:0.4669;stroke-miterlimit:10;}
	.st17{fill:none;stroke:#035C98;stroke-width:3;stroke-miterlimit:10;}
	.st18{fill:none;stroke:#023373;stroke-width:4;stroke-linecap:round;stroke-miterlimit:10;}
	.st19{fill:none;stroke:#035C98;stroke-width:4;stroke-linecap:round;stroke-miterlimit:10;}
	.st20{opacity:0.8;}
	.st21{fill:#DF7A34;}
	.st22{fill:#CE1C1C;}
	.st23{clip-path:url(#SVGID_6_);fill:#035C98;}
	.st24{clip-path:url(#SVGID_6_);fill:#E3E3E3;}
	.st25{clip-path:url(#SVGID_6_);}
	.st26{fill:#D7DBE7;}
	.st27{fill:#454B60;}
	.st28{fill-rule:evenodd;clip-rule:evenodd;fill:#FF5A76;}
	.st29{fill:#FF5A76;}
	.st30{fill:#C7CFD8;}
	.st31{fill:#5C8BFF;}
	.st32{fill:url(#SVGID_7_);}
	.st33{fill-rule:evenodd;clip-rule:evenodd;fill:#454B60;}
	.st34{fill:#020302;}
	.st35{fill:none;stroke:#3373E0;stroke-width:4;stroke-linecap:round;stroke-miterlimit:10;}
	.st36{opacity:0.5;}
</style>
<g id="Capa_1">
	<g>
		<g>
			<path class="st9" d="M189.85,578.93c0,25.74-17.66,41.27-49.99,41.27H73.7V471.29h61.9c29.57,0,48.71,15.95,48.71,39.99
				c0,14.68-7.23,26.16-21.27,32.12C180.28,547.87,189.85,559.78,189.85,578.93z M134.54,494.69h-33.61v38.71h33.61
				c15.32,0,22.76-7.44,22.76-19.36C157.3,502.13,149.86,494.69,134.54,494.69z M137.31,596.8c16.59,0,24.46-6.81,24.46-20
				c0-13.19-7.87-20.21-24.46-20.21h-36.38v40.21H137.31z"/>
			<path class="st9" d="M208.36,474.91c0-9.57,7.87-16.81,17.23-16.81c9.36,0,17.23,7.23,17.23,16.81c0,9.57-7.87,16.59-17.23,16.59
				C216.23,491.5,208.36,484.48,208.36,474.91z M212.61,620.2V507.45h25.95V620.2H212.61z"/>
			<path class="st9" d="M331.74,530h-30.85v52.54c0,11.06,3.83,14.89,14.68,14.89h16.17v22.76h-23.83
				c-21.91,0-32.97-11.27-32.97-32.97V530h-18.72v-22.55h10.42c5.96,0,8.3-2.34,8.3-8.3V479.8h25.95v27.66h30.85V530z"/>
			<path class="st9" d="M344.5,563.82c0-34.46,24.89-58.07,58.29-58.07c28.72,0,51.27,17.66,54.25,45.1h-26.59
				c-2.34-13.4-13.83-22.12-28.08-22.12c-17.66,0-31.48,13.4-31.48,35.1c0,21.7,13.83,35.1,31.48,35.1
				c14.68,0,26.38-9.36,28.72-22.34h25.95c-3.19,27.44-25.95,45.31-54.88,45.31C368.75,621.9,344.5,598.08,344.5,563.82z"/>
			<path class="st9" d="M472.35,563.82c0-34.04,24.89-58.07,57.65-58.07s57.65,24.04,57.65,58.07c0,34.04-24.89,58.08-57.65,58.08
				S472.35,597.86,472.35,563.82z M561.27,563.82c0-21.27-12.98-35.1-31.27-35.1c-18.29,0-31.27,13.83-31.27,35.1
				c0,21.27,12.98,35.1,31.27,35.1C548.3,598.93,561.27,585.1,561.27,563.82z"/>
			<path class="st9" d="M781.23,549.36v70.84h-25.95v-63.39c0-18.72-8.51-27.44-21.27-27.44c-14.25,0-25.53,10.64-25.53,30.63v60.2
				h-25.95v-63.39c0-18.72-8.51-27.44-21.27-27.44c-14.25,0-25.53,10.64-25.53,30.63v60.2h-25.95V507.45h25.53v15.95
				c7.66-11.27,20.63-17.66,34.89-17.66c15.53,0,27.87,7.45,34.04,21.27c7.45-13.4,22.55-21.27,38.5-21.27
				C765.28,505.75,781.23,521.49,781.23,549.36z"/>
			<path class="st9" d="M915.04,569.78h-87.43c2.34,20.21,15.95,30.42,33.4,30.42c12.98,0,23.4-5.74,27.87-15.1h25.1
				c-6.17,22.97-27.02,36.8-53.61,36.8c-34.25,0-58.29-22.97-58.29-57.22c0-35.1,25.53-58.92,58.5-58.92
				c31.06,0,54.88,21.49,54.88,55.1C915.46,564.04,915.25,567.02,915.04,569.78z M828.88,551.27h60.63
				c-2.77-16.17-13.83-24.04-28.93-24.04C845.26,527.24,833.14,535.74,828.88,551.27z"/>
			<path class="st9" d="M1006.3,507.45v23.61h-9.36c-21.49,0-32.97,11.49-32.97,35.1v54.03h-25.95V507.45h25.53v19.36
				c6.59-12.55,19.36-19.36,33.82-19.36H1006.3z"/>
		</g>
		
			<rect x="206.91" y="501.75" transform="matrix(-1.836970e-16 1 -1 -1.836970e-16 740.3132 300.5446)" class="st9" width="25.95" height="37.36"/>
	</g>
</g>
<g id="Capa_2">
</g>
</svg>
